<svg width="68" height="68" viewBox="0 0 68 68" fill="none" xmlns="http://www.w3.org/2000/svg">
<path d="M34 12.75C36.934 12.75 39.3125 10.3715 39.3125 7.4375C39.3125 4.50349 36.934 2.125 34 2.125C31.066 2.125 28.6875 4.50349 28.6875 7.4375C28.6875 10.3715 31.066 12.75 34 12.75Z" stroke="#FF4B5C" stroke-width="3" stroke-linejoin="round"/>
<path d="M27.1243 36.449C27.5094 34.0504 27.6821 31.7315 27.0579 30.1285C26.5266 28.7499 25.3711 27.9782 23.9766 27.4523L11.6875 23.4759C10.0937 22.9447 8.6049 22.0548 8.49997 20.2964C8.36716 18.0386 10.3593 16.5776 12.3515 17.1089C12.3515 17.1089 24.039 21.2447 34 21.2447C43.9609 21.2447 55.5156 17.1275 55.5156 17.1275C57.9062 16.4634 59.5 18.3228 59.5 20.2871C59.5 22.1743 58.039 22.8384 56.3125 23.4666L44.625 27.7047C43.5625 28.1031 41.8359 28.9 41.1719 30.1192C40.375 31.5469 40.5078 34.0411 40.8929 36.4397L41.6765 40.375L46.6451 62.1429C47.0169 63.8894 45.8083 65.5217 44.0685 65.8271C42.3286 66.1326 40.9062 64.9453 40.3909 63.2559L35.4025 47.8589C35.1625 47.1205 34.95 46.3737 34.765 45.6184L34 42.5L33.2961 45.3754C33.0729 46.2918 32.8162 47.1984 32.5258 48.0954L27.625 63.2426C27.0937 64.9493 25.6992 66.1313 23.9593 65.8271C22.2195 65.523 20.9844 63.7566 21.3748 62.1429L26.3407 40.3843L27.1243 36.449Z" stroke="#FF4B5C" stroke-width="3" stroke-linejoin="round"/>
</svg>
