<svg width="68" height="68" viewBox="0 0 68 68" fill="none" xmlns="http://www.w3.org/2000/svg">
<path d="M6.375 34H61.625" stroke="#FF4B5C" stroke-width="3" stroke-linecap="round" stroke-linejoin="round"/>
<path d="M55.25 19.125C55.25 17.9514 54.2986 17 53.125 17C51.9514 17 51 17.9514 51 19.125V48.875C51 50.0486 51.9514 51 53.125 51C54.2986 51 55.25 50.0486 55.25 48.875V19.125Z" stroke="#FF4B5C" stroke-width="3" stroke-linecap="round" stroke-linejoin="round"/>
<path d="M17 19.125C17 17.9514 16.0486 17 14.875 17C13.7014 17 12.75 17.9514 12.75 19.125V48.875C12.75 50.0486 13.7014 51 14.875 51C16.0486 51 17 50.0486 17 48.875V19.125Z" stroke="#FF4B5C" stroke-width="3" stroke-linecap="round" stroke-linejoin="round"/>
<path d="M6.375 26.5625C6.375 25.9757 5.8993 25.5 5.3125 25.5C4.7257 25.5 4.25 25.9757 4.25 26.5625V41.4375C4.25 42.0243 4.7257 42.5 5.3125 42.5C5.8993 42.5 6.375 42.0243 6.375 41.4375V26.5625Z" stroke="#FF4B5C" stroke-width="3" stroke-linecap="round" stroke-linejoin="round"/>
<path d="M63.75 26.5625C63.75 25.9757 63.2743 25.5 62.6875 25.5C62.1007 25.5 61.625 25.9757 61.625 26.5625V41.4375C61.625 42.0243 62.1007 42.5 62.6875 42.5C63.2743 42.5 63.75 42.0243 63.75 41.4375V26.5625Z" stroke="#FF4B5C" stroke-width="3" stroke-linecap="round" stroke-linejoin="round"/>
</svg>
