<svg width="38" height="38" viewBox="0 0 38 38" fill="none" xmlns="http://www.w3.org/2000/svg">
<path d="M35.0832 14.0645C34.0991 13.4388 32.8693 12.9838 31.5148 12.7337C31.2865 12.69 31.0761 12.5803 30.9096 12.4181C30.7431 12.256 30.6279 12.0486 30.5781 11.8216C29.9948 9.26027 28.7523 7.06191 26.9303 5.3957C24.8002 3.44746 21.9843 2.375 19 2.375C16.3764 2.375 13.9531 3.19734 11.996 4.75C10.6741 5.80388 9.60944 7.14472 8.8825 8.67098C8.80163 8.84308 8.68074 8.99332 8.52993 9.10914C8.37911 9.22496 8.20277 9.303 8.01562 9.33672C6.00207 9.70039 4.26535 10.4262 2.93832 11.4668C1.0168 12.9757 0 15.108 0 17.6344C0 22.6367 4.15105 26.125 10.0938 26.125H17.8125V16.6584C17.8125 16.0194 18.3038 15.4709 18.9429 15.439C19.1034 15.4312 19.2639 15.4562 19.4145 15.5123C19.5651 15.5684 19.7028 15.6545 19.8192 15.7654C19.9356 15.8763 20.0282 16.0097 20.0915 16.1574C20.1548 16.3052 20.1875 16.4643 20.1875 16.625V26.125H29.3906C34.7819 26.125 38 23.5837 38 19.3266C38 17.0963 36.9914 15.2764 35.0832 14.0645V14.0645ZM17.8125 31.5741L15.0887 28.8548C14.8647 28.6377 14.5642 28.5174 14.2523 28.5201C13.9403 28.5227 13.642 28.6479 13.4216 28.8688C13.2013 29.0896 13.0767 29.3882 13.0748 29.7002C13.0728 30.0121 13.1937 30.3123 13.4113 30.5358L18.1613 35.2777C18.3839 35.4997 18.6856 35.6245 19 35.6245C19.3144 35.6245 19.6161 35.4997 19.8387 35.2777L24.5887 30.5358C24.8063 30.3123 24.9272 30.0121 24.9252 29.7002C24.9233 29.3882 24.7987 29.0896 24.5784 28.8688C24.358 28.6479 24.0597 28.5227 23.7477 28.5201C23.4358 28.5174 23.1353 28.6377 22.9113 28.8548L20.1875 31.5741V26.125H17.8125V31.5741Z" fill="white"/>
</svg>
