<svg width="68" height="68" viewBox="0 0 68 68" fill="none" xmlns="http://www.w3.org/2000/svg">
<path d="M57.9953 24.4521C57.3192 25.1238 56.4049 25.5008 55.4519 25.5008C54.4989 25.5008 53.5846 25.1238 52.9085 24.4521L49.9229 21.4652C49.251 20.7895 48.8738 19.8754 48.8738 18.9225C48.8738 17.9696 49.251 17.0554 49.9229 16.3798L56.6817 9.62094C56.6947 9.60795 56.7044 9.59198 56.7098 9.57442C56.7152 9.55686 56.7163 9.53824 56.7129 9.52017C56.7095 9.50211 56.7017 9.48515 56.6903 9.47077C56.6788 9.45639 56.664 9.44502 56.6472 9.43765C52.2856 7.57031 46.6292 8.51992 43.0379 12.0859C39.6007 15.4979 39.4055 20.6218 40.6646 25.1016C40.8435 25.7379 40.843 26.4113 40.6633 27.0474C40.4835 27.6835 40.1314 28.2575 39.6459 28.7061L16.6693 50.057C16.1209 50.5481 15.6784 51.1458 15.3689 51.8137C15.0594 52.4816 14.8893 53.2056 14.8691 53.9415C14.8489 54.6774 14.9791 55.4096 15.2515 56.0935C15.5239 56.7773 15.933 57.3984 16.4537 57.9188C16.9743 58.4392 17.5956 58.8479 18.2796 59.12C18.9636 59.3921 19.696 59.5218 20.4318 59.5013C21.1676 59.4807 21.8916 59.3103 22.5593 59.0004C23.227 58.6905 23.8246 58.2477 24.3153 57.6991L45.8509 34.6827C46.2946 34.2051 46.8601 33.8576 47.4865 33.6774C48.113 33.4972 48.7767 33.4912 49.4063 33.66C53.8502 34.8473 58.901 34.6242 62.2984 31.2773C65.9494 27.6808 66.737 21.3244 64.9679 17.6866C64.9599 17.6707 64.9482 17.6569 64.9338 17.6463C64.9194 17.6357 64.9027 17.6287 64.8851 17.6259C64.8674 17.623 64.8494 17.6244 64.8324 17.6299C64.8154 17.6354 64.7999 17.6448 64.7873 17.6574L57.9953 24.4521Z" stroke="#00FFFF" stroke-width="3" stroke-miterlimit="10" stroke-linecap="round"/>
<path d="M42.1108 38.6883C47.5495 43.7485 54.1463 49.7476 56.7202 51.8912C56.9127 52.0499 57.0699 52.2471 57.1816 52.4701C57.2933 52.6932 57.3571 52.9372 57.3688 53.1863C57.3806 53.4355 57.34 53.6844 57.2498 53.917C57.1596 54.1496 57.0218 54.3607 56.8451 54.5368L52.4118 58.9688C52.2313 59.1451 52.0169 59.2828 51.7816 59.3736C51.5462 59.4644 51.2948 59.5064 51.0427 59.4969C50.7906 59.4875 50.5431 59.4268 50.3152 59.3187C50.0873 59.2105 49.8838 59.0571 49.717 58.8678C47.5216 56.3205 41.6035 49.9548 36.5327 44.6569M29.75 37.7188C27.4284 35.461 26.3646 34.4104 25.6328 33.6959C25.2666 33.332 25.0261 32.8607 24.9466 32.3506C24.867 31.8406 24.9525 31.3184 25.1905 30.8603C25.316 30.6351 25.4725 30.4285 25.6554 30.2467L27.7379 28.216C27.9534 28.0002 28.2068 27.8259 28.4856 27.7021C28.9256 27.5073 29.414 27.449 29.8875 27.5347C30.3611 27.6204 30.798 27.8462 31.1418 28.1828C31.8657 28.8854 33.1911 30.175 35.5791 32.5019L29.75 37.7188Z" stroke="#00FFFF" stroke-width="3" stroke-linecap="round" stroke-linejoin="round"/>
<path d="M2.30294 25.6992L6.20896 21.8822C6.26862 21.8235 6.33944 21.7775 6.41724 21.7467C6.49503 21.7159 6.57821 21.701 6.66185 21.7029C6.83046 21.7011 6.99306 21.7655 7.11474 21.8822V21.8822C7.25619 22.0221 7.42766 22.128 7.61613 22.1917C7.80461 22.2555 8.00513 22.2754 8.20247 22.2501C8.71115 22.1943 9.25435 22.0376 9.6063 21.7029C10.4032 20.9326 9.48146 19.4145 10.1827 18.4437C10.9846 17.3809 11.8625 16.3777 12.8097 15.4421C13.6066 14.6612 16.7729 11.6809 22.0933 9.5386C23.7948 8.85085 25.6131 8.4982 27.4483 8.50001C30.4486 8.50001 32.7608 9.82813 33.5922 10.5812C34.0913 11.056 34.5481 11.5732 34.9575 12.1271C34.5577 11.9797 34.1492 11.8569 33.7343 11.7592C32.8618 11.5741 31.9669 11.5178 31.0781 11.5919C29.3077 11.7366 27.1721 12.5561 26.0312 13.4513C24.1851 14.9122 23.3922 16.8672 23.2674 19.3893C23.1771 21.2646 23.6286 22.3245 28.0619 26.7591C28.2134 26.9282 28.2934 27.1495 28.285 27.3765C28.2766 27.6034 28.1804 27.8182 28.0168 27.9756L25.5969 30.3663C25.4282 30.5317 25.2021 30.6253 24.9658 30.6275C24.7296 30.6297 24.5017 30.5404 24.3299 30.3782C21.416 27.4643 19.4623 25.9834 18.3533 25.3101C17.2443 24.6367 16.3518 24.4468 15.9229 24.4003C15.0804 24.3168 14.2327 24.4964 13.4964 24.9143C13.3672 24.9853 13.2491 25.0748 13.1458 25.1799C12.9733 25.3582 12.8379 25.5688 12.7473 25.7997C12.6567 26.0305 12.6127 26.277 12.6179 26.525C12.6231 26.7729 12.6773 27.0174 12.7775 27.2443C12.8777 27.4711 13.0218 27.6759 13.2015 27.8468L13.4286 28.0593C13.4876 28.1166 13.5345 28.1852 13.5665 28.2609C13.5985 28.3366 13.615 28.418 13.615 28.5002C13.615 28.5825 13.5985 28.6638 13.5665 28.7396C13.5345 28.8153 13.4876 28.8839 13.4286 28.9412L9.52662 32.7516C9.46751 32.8114 9.39693 32.8587 9.31912 32.8907C9.2413 32.9226 9.15784 32.9386 9.07372 32.9375C8.90514 32.9392 8.74259 32.8748 8.62083 32.7582L2.30294 26.5917C2.1886 26.4713 2.12485 26.3115 2.12485 26.1455C2.12485 25.9794 2.1886 25.8197 2.30294 25.6992V25.6992Z" stroke="#00FFFF" stroke-width="3" stroke-linecap="round" stroke-linejoin="round"/>
</svg>
