<svg width="38" height="38" viewBox="0 0 38 38" fill="none" xmlns="http://www.w3.org/2000/svg">
<path d="M35 16.1599V32.0769C35 33.1174 34.4943 34.1152 33.5941 34.851C32.6939 35.5867 31.473 36 30.2 36H7.8C6.52696 36 5.30606 35.5867 4.40589 34.851C3.50571 34.1152 3 33.1174 3 32.0769V5.92308C3 4.88261 3.50571 3.88476 4.40589 3.14904C5.30606 2.41332 6.52696 2 7.8 2H17.675C18.5234 2.0001 19.337 2.27556 19.937 2.76582L34.063 14.3111C34.6628 14.8015 34.9999 15.4665 35 16.1599Z" stroke="white" stroke-width="3" stroke-linejoin="round"/>
<path d="M19 4V12.6842C19 13.2984 19.3327 13.8874 19.9249 14.3217C20.5171 14.756 21.3204 15 22.1579 15H34" stroke="white" stroke-width="3" stroke-linecap="round" stroke-linejoin="round"/>
<path d="M14.3933 32.18C12.5693 32.18 11.1053 31.592 10.0013 30.416C8.90927 29.24 8.36327 27.578 8.36327 25.43C8.36327 23.306 8.89127 21.65 9.94727 20.462C11.0153 19.274 12.4973 18.68 14.3933 18.68C15.2093 18.68 15.9533 18.74 16.6253 18.86C16.8653 18.908 17.0633 19.034 17.2193 19.238C17.3753 19.43 17.4533 19.652 17.4533 19.904C17.4533 20.12 17.3633 20.294 17.1833 20.426C17.0153 20.546 16.8293 20.576 16.6253 20.516C16.0613 20.372 15.3773 20.3 14.5733 20.3C13.2773 20.3 12.2513 20.75 11.4953 21.65C10.7513 22.538 10.3793 23.798 10.3793 25.43C10.3793 27.062 10.7633 28.328 11.5313 29.228C12.2993 30.116 13.3133 30.56 14.5733 30.56C15.3653 30.56 16.0793 30.482 16.7153 30.326C16.9193 30.266 17.1053 30.302 17.2733 30.434C17.4533 30.566 17.5433 30.74 17.5433 30.956C17.5433 31.208 17.4653 31.436 17.3093 31.64C17.1533 31.832 16.9493 31.952 16.6973 32C15.9893 32.12 15.2213 32.18 14.3933 32.18ZM23.2539 31.028L19.4019 19.832C19.3179 19.592 19.3479 19.37 19.4919 19.166C19.6479 18.962 19.8519 18.86 20.1039 18.86H20.1759C20.4879 18.86 20.7639 18.95 21.0039 19.13C21.2559 19.31 21.4239 19.544 21.5079 19.832L24.6759 30.002C24.6759 30.014 24.6819 30.02 24.6939 30.02C24.7059 30.02 24.7119 30.014 24.7119 30.002L27.8799 19.832C27.9759 19.544 28.1439 19.31 28.3839 19.13C28.6359 18.95 28.9119 18.86 29.2119 18.86C29.4639 18.86 29.6619 18.962 29.8059 19.166C29.9619 19.37 29.9979 19.592 29.9139 19.832L26.0619 31.028C25.9659 31.316 25.7919 31.55 25.5399 31.73C25.2999 31.91 25.0239 32 24.7119 32H24.6039C24.3039 32 24.0279 31.91 23.7759 31.73C23.5239 31.55 23.3499 31.316 23.2539 31.028Z" fill="white"/>
</svg>
