<svg width="140" height="140" viewBox="0 0 140 140" fill="none" xmlns="http://www.w3.org/2000/svg">
<path d="M8.75 8.75V131.25H131.25V8.75H8.75ZM74.375 103.906C74.375 115.831 67.3312 121.644 57.1348 121.644C47.9254 121.644 42.5797 116.875 39.8672 111.12L49.2406 105.446C51.048 108.653 52.4207 111.366 56.3664 111.366C59.6477 111.366 62.3438 109.886 62.3438 104.13V65.625H74.375V103.906ZM101.541 121.371C90.8523 121.371 83.9453 116.547 80.5738 109.886L89.9609 104.453C92.4219 108.484 95.6348 111.169 101.309 111.169C106.077 111.169 108.847 109.058 108.847 105.768C108.847 101.823 105.995 100.425 100.732 98.1121L97.8551 96.8762C89.548 93.3434 84.041 88.9027 84.041 79.5266C84.041 70.8941 90.6172 64.5887 100.896 64.5887C108.216 64.5887 113.474 66.8637 117.261 73.5246L108.281 79.2969C106.307 75.7613 104.18 74.375 100.882 74.375C97.5105 74.375 95.3723 76.5133 95.3723 79.2969C95.3723 82.7504 97.5105 84.1477 102.443 86.2859L105.32 87.5191C115.106 91.7137 120.616 95.9957 120.616 105.61C120.619 115.973 112.479 121.371 101.541 121.371Z" fill="#FFFF00" fill-opacity="0.7"/>
</svg>
