<svg width="140" height="140" viewBox="0 0 140 140" fill="none" xmlns="http://www.w3.org/2000/svg">
<path d="M112.29 49.4157C110.892 48.9381 109.483 48.4933 108.065 48.0813C108.3 47.1243 108.517 46.1618 108.716 45.1938C111.915 29.6352 109.823 17.1009 102.684 12.9747C95.848 9.0153 84.6371 13.1415 73.3277 23.0071C72.2158 23.9805 71.1266 24.9831 70.0602 26.0149C69.3492 25.3295 68.6201 24.6587 67.8727 24.0024C56.0191 13.4532 44.1383 9.00984 37.007 13.1497C30.1711 17.1173 28.1395 28.8997 31.0188 43.6462C31.3068 45.1045 31.6303 46.5565 31.9895 48.002C30.3553 48.4653 28.735 48.9759 27.1305 49.5333C13.2508 54.3868 4.375 61.9966 4.375 69.888C4.375 78.0419 13.9016 86.2177 28.3746 91.1751C29.5486 91.5743 30.7335 91.9453 31.9293 92.288C31.541 93.8356 31.1974 95.4006 30.8984 96.9829C28.1641 111.475 30.2969 122.979 37.1191 126.922C44.1656 130.993 55.9863 126.809 67.509 116.72C68.4204 115.921 69.3319 115.078 70.2434 114.19C71.3954 115.304 72.5803 116.385 73.7981 117.433C84.9543 127.053 95.9711 130.938 102.782 126.984C109.823 122.899 112.112 110.54 109.14 95.5036C108.912 94.3552 108.649 93.183 108.352 91.9872C109.184 91.7411 109.998 91.4868 110.794 91.2243C125.833 86.2286 135.63 78.1512 135.63 69.8962C135.625 61.9665 126.465 54.3075 112.29 49.4157V49.4157ZM77.0164 27.2454C86.7043 18.7934 95.7605 15.4575 99.8895 17.8419C104.284 20.3821 105.993 30.6251 103.231 44.0591C103.049 44.9341 102.852 45.8063 102.64 46.6759C96.8587 45.3608 90.996 44.4327 85.091 43.8977C81.71 39.0275 78.0038 34.3913 73.9977 30.0208C74.9784 29.0692 75.9828 28.1441 77.0109 27.2454H77.0164ZM43.1293 76.6309C44.316 78.9278 45.5565 81.1964 46.8508 83.4368C48.1687 85.7227 49.5423 87.975 50.9715 90.1934C46.9084 89.7517 42.8708 89.101 38.8746 88.2438C40.034 84.4923 41.4613 80.5958 43.1293 76.6309V76.6309ZM43.1293 63.4157C41.4887 59.5356 40.0996 55.7184 38.9594 52.0325C42.7055 51.193 46.6977 50.5067 50.8594 49.9872C49.4648 52.1637 48.1232 54.3722 46.8344 56.6126C45.5456 58.8529 44.3078 61.1206 43.1211 63.4157H43.1293ZM46.1098 70.0247C47.8379 66.4208 49.6991 62.8861 51.6934 59.4208C53.6858 55.9572 55.8068 52.573 58.0563 49.268C61.9609 48.9727 65.9641 48.8169 70.0082 48.8169C74.0523 48.8169 78.0801 48.9727 81.982 49.2708C84.2078 52.5684 86.316 55.9408 88.3066 59.388C90.2973 62.8351 92.1831 66.3533 93.9641 69.9427C92.2068 73.5593 90.3255 77.1085 88.3203 80.5903C86.3315 84.0539 84.2352 87.4481 82.0312 90.7731C78.1348 91.0466 74.1016 91.197 70 91.197C65.8984 91.197 61.9418 91.0684 58.1164 90.8196C55.8505 87.5037 53.7122 84.1049 51.7016 80.6231C49.6909 77.1414 47.8242 73.6085 46.1016 70.0247H46.1098ZM93.1738 83.3985C94.4954 81.1053 95.7642 78.782 96.9801 76.4286C98.6468 80.2077 100.118 84.0701 101.388 88.0005C97.3448 88.9109 93.2567 89.6091 89.1406 90.0923C90.5297 87.8884 91.8741 85.6571 93.1738 83.3985V83.3985ZM96.9254 63.4184C95.715 61.1124 94.4563 58.8338 93.1492 56.5825C91.8732 54.3622 90.5434 52.1692 89.1598 50.0036C93.3461 50.5341 97.3629 51.2395 101.128 52.1009C99.9175 55.9413 98.5149 59.7186 96.9254 63.4184V63.4184ZM70.0629 34.0376C72.7933 37.0211 75.3714 40.1404 77.7875 43.3837C72.6195 43.1376 67.4479 43.1376 62.2727 43.3837C64.8238 40.0094 67.4352 36.8786 70.0629 34.0376V34.0376ZM39.8289 18.0087C44.2203 15.4602 53.9301 19.1024 64.1648 28.1997C64.8184 28.7821 65.4773 29.3919 66.1336 30.0235C62.1068 34.3934 58.3744 39.0255 54.9609 43.8895C49.069 44.4204 43.2179 45.3338 37.4445 46.6239C37.1109 45.2822 36.8102 43.9315 36.5422 42.5716C34.0676 29.9305 35.7055 20.4012 39.8289 18.0087ZM33.4277 86.8739C32.334 86.5622 31.2539 86.224 30.1875 85.8595C23.7891 83.672 18.5035 80.8173 14.875 77.7083C11.6266 74.922 9.98047 72.1411 9.98047 69.888C9.98047 65.1001 17.1062 58.9915 28.9898 54.8489C30.4828 54.3294 31.9885 53.8545 33.507 53.4243C35.2719 59.0962 37.4094 64.6454 39.9055 70.0356C37.3796 75.5004 35.2157 81.1253 33.4277 86.8739V86.8739ZM63.8148 112.487C58.7207 116.949 53.6184 120.113 49.1203 121.707C45.0789 123.137 41.8605 123.178 39.9164 122.054C35.7766 119.662 34.0539 110.422 36.4027 98.0302C36.6816 96.5718 37.0007 95.1135 37.3598 93.6552C43.1909 94.9113 49.1008 95.7691 55.0484 96.2227C58.4953 101.112 62.2585 105.77 66.3141 110.168C65.4992 110.969 64.6652 111.74 63.8148 112.487ZM70.2187 106.138C67.5609 103.264 64.9086 100.084 62.3219 96.6657C64.8357 96.7641 67.3951 96.8134 70 96.8134C72.6742 96.8134 75.3211 96.7559 77.9297 96.6384C75.5224 99.9337 72.9487 103.104 70.2187 106.138V106.138ZM104.267 113.955C103.485 118.177 101.913 120.993 99.9688 122.12C95.8316 124.521 86.9859 121.401 77.4484 113.173C76.3547 112.233 75.2609 111.224 74.1481 110.165C78.1246 105.751 81.7997 101.073 85.1484 96.1653C91.129 95.6586 97.0675 94.7404 102.922 93.4173C103.19 94.5001 103.427 95.561 103.633 96.6001C104.948 103.245 105.137 109.255 104.267 113.955V113.955ZM109.025 85.8895C108.309 86.1274 107.57 86.3571 106.821 86.5813C104.985 80.8827 102.765 75.3155 100.174 69.918C102.667 64.5926 104.801 59.1061 106.561 53.4954C107.904 53.8864 109.208 54.2966 110.463 54.7313C122.609 58.9204 130.02 65.1219 130.02 69.888C130.02 74.9739 122.016 81.5747 109.025 85.8895V85.8895Z" fill="#61DBFB" fill-opacity="0.7"/>
<path d="M70.0001 81.6347C72.3272 81.6423 74.6042 80.9591 76.5428 79.6718C78.4814 78.3844 79.9943 76.5508 80.8901 74.403C81.7859 72.2552 82.0242 69.8899 81.5749 67.6066C81.1256 65.3233 80.0088 63.2247 78.3659 61.5765C76.7231 59.9283 74.6281 58.8047 72.3463 58.3479C70.0645 57.8911 67.6984 58.1217 65.5477 59.0105C63.397 59.8993 61.5584 61.4063 60.2648 63.3406C58.9711 65.275 58.2806 67.5498 58.2805 69.8769C58.2773 71.4186 58.578 72.9459 59.1653 74.3714C59.7526 75.7969 60.6152 77.0926 61.7036 78.1846C62.792 79.2766 64.0849 80.1433 65.5085 80.7353C66.932 81.3273 68.4583 81.6329 70.0001 81.6347Z" fill="#61DBFB" fill-opacity="0.7"/>
</svg>
