<svg width="140" height="140" viewBox="0 0 140 140" fill="none" xmlns="http://www.w3.org/2000/svg">
<path d="M119.583 14.5833H20.4167L29.1667 113.75L70.0001 125.417L110.833 113.75L119.583 14.5833Z" fill="#0277BD" fill-opacity="0.6"/>
<path d="M70 23.3333V116.375L102.667 107.042L109.958 23.3333H70Z" fill="#039BE5" fill-opacity="0.6"/>
<path d="M96.5417 37.9167H70V49.5834H84.2917L83.4167 61.2501H70V72.9167H82.8333L81.9583 86.0417L70 90.1251V102.375L93.0417 94.7917L95.0833 61.2501L96.5417 37.9167Z" fill="white" fill-opacity="0.6"/>
<path d="M70.0001 37.9167V49.5834H44.0417L43.1667 37.9167H70.0001ZM56.5834 61.2501L57.1667 72.9167H70.0001V61.2501H56.5834ZM57.7501 78.7501H46.0834L46.9584 94.7917L70.0001 102.375V90.1251L58.0417 86.0417L57.7501 78.7501Z" fill="#EEEEEE" fill-opacity="0.6"/>
</svg>
