<svg width="140" height="140" viewBox="0 0 140 140" fill="none" xmlns="http://www.w3.org/2000/svg">
<path d="M85.8594 9.94754C80.7762 9.11082 73.336 8.72528 68.2856 8.74989C63.5519 8.75537 58.8269 9.15598 54.1598 9.94754C41.6528 12.135 39.375 16.7014 39.375 25.1343V34.9999H70.0001V39.3749H29.4274C18.0633 39.3749 8.84027 52.9565 8.75004 69.7593V69.9999C8.7461 72.9377 9.03278 75.8686 9.6059 78.7499C12.1461 91.4046 20.0594 100.625 29.4274 100.625H35V85.8593C35 77.3007 40.6985 69.4667 50.0391 67.7851L52.7379 67.4487H85.8594C87.2505 67.4542 88.6359 67.2702 89.9774 66.9019C93.0444 66.0829 95.7533 64.27 97.68 61.7471C99.6066 59.2242 100.642 56.1337 100.625 52.9593V25.1343C100.625 17.2264 93.8766 11.2628 85.8594 9.94754ZM53.3012 28.8475C52.198 28.8513 51.1185 28.5274 50.1996 27.9168C49.2807 27.3062 48.5638 26.4365 48.1398 25.418C47.7159 24.3994 47.604 23.2779 47.8183 22.1957C48.0326 21.1135 48.5635 20.1192 49.3436 19.3391C50.1237 18.559 51.1179 18.0281 52.2002 17.8138C53.2824 17.5995 54.4039 17.7114 55.4225 18.1354C56.441 18.5593 57.3107 19.2762 57.9213 20.1951C58.5319 21.114 58.8558 22.1935 58.852 23.2968C58.8524 24.0258 58.709 24.7478 58.4302 25.4214C58.1514 26.095 57.7425 26.7071 57.227 27.2226C56.7115 27.7381 56.0995 28.1469 55.4258 28.4257C54.7522 28.7046 54.0303 28.8479 53.3012 28.8475V28.8475Z" fill="#306998"/>
<path d="M129.959 59.3359C127.034 47.6848 119.457 39.375 110.573 39.375H105.73V52.3496C105.73 63.1695 98.6207 71.0035 89.9418 72.3461C89.0651 72.482 88.1793 72.5506 87.2922 72.5512H54.1625C52.7572 72.5498 51.3576 72.729 49.998 73.0844C43.8977 74.6867 39.375 79.7617 39.375 86.3434V114.171C39.375 122.101 47.343 126.749 55.1605 129.021C64.5148 131.742 74.7059 132.234 85.9004 129.021C93.3352 126.897 100.625 122.601 100.625 114.171V105H70V100.625H110.573C118.623 100.625 125.598 93.8082 129.016 83.8606C130.517 79.3945 131.272 74.7115 131.25 70C131.258 66.4059 130.824 62.8244 129.959 59.3359ZM86.5457 110.469C87.649 110.465 88.7285 110.789 89.6474 111.399C90.5663 112.01 91.2831 112.88 91.7071 113.898C92.131 114.917 92.2429 116.038 92.0286 117.121C91.8143 118.203 91.2835 119.197 90.5033 119.977C89.7232 120.757 88.729 121.288 87.6468 121.502C86.5645 121.717 85.443 121.605 84.4245 121.181C83.4059 120.757 82.5362 120.04 81.9256 119.121C81.3151 118.202 80.9911 117.123 80.9949 116.02C80.9946 115.29 81.1379 114.569 81.4167 113.895C81.6955 113.221 82.1044 112.609 82.6199 112.094C83.1354 111.578 83.7475 111.169 84.4211 110.891C85.0947 110.612 85.8167 110.468 86.5457 110.469Z" fill="#FFD43B" fill-opacity="0.8"/>
</svg>
