<svg width="100" height="140" viewBox="0 0 100 140" fill="none" xmlns="http://www.w3.org/2000/svg">
<g opacity="0.7">
<path d="M25.005 140C38.8023 140 50 129.547 50 116.667V93.3333H25.005C11.2078 93.3333 0.0100098 103.787 0.0100098 116.667C0.0100098 129.547 11.2078 140 25.005 140Z" fill="#0ACF83" fill-opacity="0.9"/>
<path d="M0.0100098 70.0001C0.0100098 57.1201 11.2078 46.6667 25.005 46.6667H50V93.3334H25.005C11.2078 93.3334 0.0100098 82.8801 0.0100098 70.0001Z" fill="#A259FF" fill-opacity="0.9"/>
<path d="M0.0100098 23.3333C0.0100098 10.4533 11.2078 0 25.005 0H50V46.6667H25.005C11.2078 46.6667 0.0100098 36.2133 0.0100098 23.3333Z" fill="#F24E1E" fill-opacity="0.9"/>
<path d="M50 0H74.995C88.7923 0 99.99 10.4533 99.99 23.3333C99.99 36.2133 88.7923 46.6667 74.995 46.6667H50V0Z" fill="#FF7262" fill-opacity="0.9"/>
<path d="M99.99 70.0001C99.99 82.8801 88.7923 93.3334 74.995 93.3334C61.1978 93.3334 50 82.8801 50 70.0001C50 57.1201 61.1978 46.6667 74.995 46.6667C88.7923 46.6667 99.99 57.1201 99.99 70.0001Z" fill="#1ABCFE" fill-opacity="0.9"/>
</g>
</svg>
