<svg width="140" height="140" viewBox="0 0 140 140" fill="none" xmlns="http://www.w3.org/2000/svg">
<path d="M119.583 14.5833H20.4167L29.1667 113.75L70.0001 125.417L110.833 113.75L119.583 14.5833Z" fill="#E65100" fill-opacity="0.6"/>
<path d="M70 23.3333V116.375L102.667 107.042L109.958 23.3333H70Z" fill="#FF6D00" fill-opacity="0.6"/>
<path d="M70 72.9167V61.2501H95.0833L93.0417 94.7917L70 102.375V90.1251L81.9583 86.0417L82.8333 72.9167H70V72.9167ZM95.9583 49.5834L96.8333 37.9167H70V49.5834H95.9583Z" fill="white" fill-opacity="0.6"/>
<path d="M69.9999 90.1251V102.375L46.9583 94.7917L45.7916 78.7501H57.4583L58.0416 86.0417L69.9999 90.1251ZM55.7083 49.5834H69.9999V37.9167H43.4583L45.4999 72.9167H69.9999V61.2501H56.5833L55.7083 49.5834Z" fill="#EEEEEE" fill-opacity="0.6"/>
</svg>
