<?xml version="1.0" standalone="no"?>
<!DOCTYPE svg PUBLIC "-//W3C//DTD SVG 20010904//EN"
 "http://www.w3.org/TR/2001/REC-SVG-20010904/DTD/svg10.dtd">
<svg version="1.0" xmlns="http://www.w3.org/2000/svg"
 width="261.000000pt" height="261.000000pt" viewBox="0 0 261.000000 261.000000"
 preserveAspectRatio="xMidYMid meet">
<metadata>
Created by potrace 1.14, written by Peter Selinger 2001-2017
</metadata>
<g transform="translate(0.000000,261.000000) scale(0.100000,-0.100000)"
fill="#000000" stroke="none">
<path d="M1600 1877 c-112 -59 -109 -50 -107 -390 1 -157 6 -289 10 -293 4 -5
48 -9 97 -9 48 0 86 -3 83 -8 -11 -17 -12 -56 -2 -62 6 -4 9 0 7 10 -2 10 2
20 9 22 8 3 11 -3 8 -17 -4 -18 -2 -20 11 -10 12 10 12 16 2 28 -11 13 -10 15
4 9 10 -3 20 -2 23 3 3 5 -8 7 -25 5 -20 -3 -28 0 -24 6 3 6 15 9 25 6 10 -3
21 -1 24 3 7 12 30 7 48 -12 15 -14 15 -17 1 -22 -23 -9 -23 -8 -19 14 2 11 0
18 -6 15 -9 -6 -42 -64 -37 -66 28 -8 51 -3 55 12 3 11 8 17 12 15 4 -3 13 4
20 16 7 11 8 17 3 14 -6 -3 -12 0 -15 7 -6 17 52 14 64 -4 7 -12 12 -7 11 11
0 3 17 5 38 5 21 0 38 -2 37 -5 -1 -3 4 -15 11 -27 8 -14 8 -23 2 -26 -6 -3
-5 -4 2 -3 7 2 27 -3 43 -11 26 -12 28 -12 12 1 -11 8 -14 17 -8 20 5 4 12 2
16 -3 3 -6 13 -7 23 -4 15 6 15 5 3 -10 -9 -11 -10 -17 -2 -17 6 0 11 4 11 10
0 5 8 7 18 3 14 -5 13 -3 -3 10 -22 18 -14 22 15 7 13 -7 21 -7 25 0 5 8 11 7
21 -1 8 -6 14 -8 14 -3 0 5 5 2 10 -6 6 -10 10 -11 10 -2 0 6 4 12 10 12 5 0
7 -8 3 -17 -3 -10 -3 -15 1 -11 12 10 14 42 4 55 -6 7 -8 20 -4 28 4 13 2 14
-14 5 -11 -6 -20 -15 -20 -21 0 -6 -5 -7 -12 -3 -8 5 -5 13 10 25 22 17 31 36
12 24 -5 -3 -10 1 -10 10 0 10 5 13 12 9 7 -5 8 -3 4 5 -5 7 -10 27 -13 44 -3
18 -9 37 -15 44 -6 8 -67 12 -199 13 l-191 1 -26 26 c-17 16 -21 23 -10 20 20
-7 34 23 16 35 -7 4 -16 8 -20 8 -4 0 -4 8 -1 17 6 15 5 16 -9 3 -18 -17 -14
-30 7 -30 8 0 17 -5 21 -12 5 -8 0 -9 -14 -6 -12 4 -25 1 -29 -4 -3 -6 -1 -8
5 -4 12 7 10 -20 -4 -34 -5 -5 -10 87 -10 246 -2 262 -5 284 -43 284 -9 0 -27
-6 -41 -13z m130 -521 c9 -12 8 -15 -8 -13 -12 0 -18 6 -15 14 6 16 8 16 23
-1z m293 -175 c11 -1 8 -14 -9 -36 -15 -20 -15 -20 -30 -1 -20 28 -17 43 9 40
12 -1 25 -3 30 -3z m64 -4 c6 -4 14 -1 16 5 4 8 6 7 6 -4 1 -9 -4 -18 -11 -20
-8 -3 -6 -7 5 -11 9 -3 16 -3 16 1 -4 21 2 42 12 42 5 0 8 -4 5 -9 -3 -5 1
-14 8 -20 11 -10 16 -9 23 3 7 13 10 13 21 -4 7 -11 9 -20 5 -21 -5 0 -16 -2
-25 -4 -9 -2 -19 4 -23 13 -6 16 -7 15 -16 -1 -8 -13 -14 -15 -30 -7 -13 7
-25 8 -38 0 -25 -13 -36 2 -22 29 11 19 26 22 48 8z m-310 -53 c2 -5 -5 -10
-16 -10 -11 0 -17 5 -14 14 6 14 25 12 30 -4z"/>
<path d="M2006 1168 c5 -7 2 -9 -9 -5 -11 4 -14 2 -10 -9 4 -11 9 -12 19 -3
12 10 11 29 -2 29 -3 0 -2 -5 2 -12z"/>
<path d="M2055 1158 l-20 -21 23 12 c12 6 22 16 22 21 0 13 -2 12 -25 -12z"/>
<path d="M2313 1869 c-24 -12 -54 -34 -68 -51 l-25 -30 -2 -291 c0 -161 0
-300 0 -310 1 -11 -2 -16 -10 -11 -8 5 -8 3 -2 -7 11 -17 11 -23 13 -341 1
-246 2 -257 21 -263 45 -14 158 48 167 92 9 41 9 74 1 79 -5 3 -1 15 9 27 17
20 17 20 -2 13 -14 -5 -17 -4 -9 4 6 6 19 8 28 4 14 -5 15 -9 4 -16 -9 -6 -6
-7 9 -3 18 5 22 3 17 -9 -3 -8 -12 -12 -19 -10 -7 3 -16 1 -20 -5 -4 -7 1 -8
12 -4 17 6 17 6 0 -14 -12 -14 -15 -23 -7 -28 5 -3 7 -11 3 -18 -12 -20 -9
-55 4 -50 7 3 10 10 6 17 -3 6 4 1 16 -12 22 -22 37 -30 27 -13 -4 5 -3 11 1
14 5 2 3 2 -4 1 -17 -4 -26 13 -11 20 9 4 8 5 -2 5 -30 -2 -41 1 -36 10 4 5
17 8 31 7 16 -2 22 1 18 8 -11 17 -12 36 -2 36 5 0 9 5 9 12 0 9 -3 9 -12 0
-23 -23 -29 -12 -9 17 11 15 18 31 14 35 -3 3 0 6 7 6 7 0 10 3 7 6 -4 4 -13
2 -20 -5 -8 -6 -22 -9 -31 -5 -12 5 -13 10 -5 25 5 10 15 19 21 19 7 0 6 -5
-2 -15 -7 -9 -8 -15 -2 -15 5 0 13 7 16 16 3 8 11 12 17 8 8 -4 8 0 0 15 -7
11 -17 21 -24 21 -8 0 -7 -4 3 -10 8 -5 12 -11 9 -15 -3 -3 -16 4 -29 15 -27
23 -38 26 -21 6 8 -9 8 -16 2 -20 -6 -4 -8 -13 -4 -21 3 -8 1 -15 -4 -15 -5 0
-9 31 -8 69 0 46 -3 68 -10 64 -5 -4 -6 -2 -2 3 5 5 16 9 25 9 9 0 16 6 14 13
-1 8 2 11 8 7 6 -4 17 1 25 11 13 19 10 44 -7 44 -5 0 -6 -5 -3 -10 3 -5 1
-10 -4 -10 -6 0 -11 4 -11 9 0 5 -7 11 -14 14 -10 4 -13 1 -10 -8 3 -8 14 -17
25 -20 11 -4 17 -11 14 -16 -4 -5 -14 -5 -26 2 -19 10 -19 9 -10 -10 9 -16 9
-19 -2 -15 -10 3 -13 24 -12 74 0 41 -3 66 -9 63 -5 -3 -6 -1 -3 5 4 5 17 8
28 5 18 -5 19 -7 5 -15 -20 -11 -20 -22 -1 -41 15 -15 55 -12 55 4 0 5 -8 5
-17 2 -17 -7 -17 -6 0 20 9 15 14 27 10 27 -5 0 -1 5 7 10 8 5 11 10 5 10 -5
0 -16 -4 -24 -9 -8 -6 -23 -5 -36 1 -19 9 -22 17 -20 78 0 41 -3 66 -9 63 -5
-3 -6 -1 -2 5 7 12 37 5 48 -12 12 -17 9 -23 -7 -23 -10 0 -14 6 -10 16 3 8 2
12 -2 7 -4 -4 -8 -18 -8 -30 -1 -17 4 -22 20 -20 11 1 26 3 33 3 6 1 12 5 12
11 0 5 -8 6 -17 3 -17 -7 -17 -6 0 20 9 15 14 27 10 27 -5 0 -1 5 7 10 8 5 11
10 5 10 -5 0 -16 -4 -24 -9 -8 -6 -23 -5 -36 1 -19 9 -22 17 -20 78 0 41 -3
66 -9 63 -5 -3 -6 -1 -3 5 4 5 17 8 28 5 18 -5 19 -7 5 -15 -20 -11 -20 -22
-1 -41 15 -15 55 -12 55 4 0 5 -8 5 -17 2 -17 -7 -17 -6 0 20 9 15 14 27 10
27 -5 0 -1 5 7 10 8 5 11 10 5 10 -5 0 -16 -4 -24 -9 -8 -6 -23 -5 -36 1 -19
9 -22 17 -20 78 0 41 -3 66 -9 63 -5 -3 -6 -1 -3 5 4 5 16 8 28 5 16 -4 17 -8
7 -14 -7 -5 -13 -19 -13 -32 -1 -18 4 -23 20 -21 11 1 26 3 33 3 6 1 12 5 12
11 0 5 -8 6 -17 3 -17 -7 -17 -6 0 20 9 15 14 27 10 27 -5 0 -1 5 7 10 8 5 11
10 5 10 -5 0 -16 -4 -24 -9 -8 -6 -23 -5 -36 1 -18 8 -21 18 -21 61 1 56 11
81 28 71 7 -4 8 -2 4 4 -4 7 -2 12 5 12 7 0 9 3 6 7 -4 3 -15 -1 -25 -10 -10
-10 -22 -14 -25 -11 -4 4 1 13 11 21 9 8 11 12 5 8 -13 -6 -15 6 -15 80 0 58
-27 68 -95 34z m152 -312 c-8 -13 -13 -27 -10 -30 3 -4 -3 0 -12 8 -16 14 -16
16 2 30 29 21 38 18 20 -8z m0 -160 c-8 -13 -13 -27 -10 -30 3 -4 -3 0 -12 8
-16 14 -16 16 2 30 29 21 38 18 20 -8z m15 -141 c0 -3 -4 -8 -10 -11 -5 -3
-10 -1 -10 4 0 6 5 11 10 11 6 0 10 -2 10 -4z m-15 -179 c-8 -13 -13 -27 -10
-30 3 -4 -3 0 -12 8 -16 14 -16 16 2 30 29 21 38 18 20 -8z m-2 -382 c-4 -11
-8 -12 -18 -2 -16 15 -10 28 10 21 7 -3 11 -12 8 -19z"/>
<path d="M247 1850 c-13 -11 -34 -39 -46 -62 -28 -57 -17 -68 71 -68 52 0 74
-4 86 -17 12 -12 13 -18 4 -21 -6 -2 -12 -9 -12 -15 0 -8 4 -7 12 1 7 7 17 12
22 12 6 0 5 -5 -2 -12 -7 -7 -12 -19 -12 -27 0 -10 5 -7 13 8 6 14 19 27 27
29 12 4 13 3 2 -10 -10 -13 -9 -18 5 -29 16 -12 17 -12 5 2 -10 13 -10 19 2
28 9 7 17 8 20 2 3 -5 0 -11 -6 -13 -8 -3 -3 -10 12 -18 22 -12 23 -11 13 1
-10 12 -8 17 9 28 18 11 20 11 15 -1 -3 -8 -1 -21 4 -29 7 -11 9 -11 9 -1 0 7
5 10 12 6 7 -4 8 -3 4 4 -4 7 -3 12 2 12 6 0 12 -6 15 -14 3 -8 6 -252 7 -542
0 -404 3 -530 13 -536 17 -12 68 -1 98 22 26 18 39 17 39 -3 0 -5 -7 -6 -16
-3 -15 6 -15 4 -3 -10 8 -10 15 -12 17 -5 2 6 8 8 14 5 5 -4 1 -15 -11 -28
-20 -21 -20 -22 -1 -23 11 -1 20 2 20 8 0 5 5 9 11 9 5 0 8 -4 5 -9 -3 -5 1
-12 9 -15 13 -4 14 -2 5 14 -11 21 -2 27 18 10 9 -7 9 -7 2 2 -16 20 -11 32 7
17 9 -8 14 -9 10 -2 -4 6 -4 13 0 16 5 2 2 2 -5 0 -8 -1 -12 3 -9 9 2 7 13 12
23 10 16 -2 17 -1 4 7 -8 6 -11 11 -7 11 4 0 3 9 -2 19 -11 20 8 48 24 33 5
-4 5 -1 1 6 -6 10 -11 10 -22 1 -19 -15 -18 1 2 29 11 15 12 22 3 22 -7 0 -9
3 -6 6 3 4 2 15 -3 25 -8 14 -5 21 12 33 12 9 18 16 12 16 -5 0 -15 -5 -22
-12 -7 -7 -12 -8 -12 -2 0 17 22 33 39 27 13 -4 14 -3 1 5 -8 6 -18 8 -22 6
-4 -3 -8 0 -8 6 0 6 10 15 23 20 16 6 17 9 5 9 -9 1 -20 -3 -23 -9 -3 -5 -13
-10 -22 -10 -11 0 -9 5 8 21 13 11 18 18 12 14 -8 -4 -13 0 -13 10 0 12 6 15
23 10 16 -5 18 -4 8 3 -11 8 -10 11 5 15 16 4 17 5 2 6 -10 0 -18 6 -18 11 0
6 -5 10 -11 10 -8 0 -8 -5 1 -15 7 -8 9 -15 4 -15 -14 0 -29 14 -31 28 -3 12
5 15 42 14 17 -1 17 0 2 4 -9 3 -15 10 -12 15 4 5 1 9 -5 9 -6 0 -8 5 -5 10 4
6 11 8 16 5 5 -3 6 1 3 9 -4 10 -1 16 7 16 7 0 9 3 6 7 -4 3 -2 12 5 20 6 7 8
16 4 20 -3 3 -6 1 -6 -6 0 -7 -5 -9 -12 -5 -7 4 -10 4 -6 -1 9 -9 -19 -65 -33
-65 -5 0 -2 14 7 32 15 28 15 32 0 40 -15 8 -15 12 -1 39 9 16 13 34 10 39 -3
6 -1 10 5 10 7 0 9 7 6 15 -4 10 2 19 17 25 l22 9 -23 0 c-13 1 -21 5 -18 9 2
4 1 14 -4 22 -6 10 -3 21 8 35 16 19 16 19 0 6 -10 -7 -18 -9 -18 -3 0 15 26
33 35 24 5 -4 4 -1 0 7 -6 11 -4 13 11 7 15 -6 16 -5 7 5 -10 9 -15 10 -27 0
-10 -8 -16 -9 -21 -1 -3 5 -3 10 2 10 4 0 19 10 33 21 l25 21 -27 -16 c-37
-22 -48 -20 -19 4 13 11 19 20 14 20 -5 0 -14 -5 -21 -12 -9 -9 -12 -9 -12 3
0 8 12 23 28 33 15 9 19 15 9 12 -9 -3 -17 -1 -17 4 0 6 -5 10 -11 10 -8 0 -8
-5 1 -15 14 -16 3 -20 -18 -6 -30 19 0 46 32 30 18 -9 19 -8 6 3 -16 14 -23
31 -23 65 -1 18 -4 20 -20 12 -10 -6 -23 -9 -29 -7 -6 2 5 12 25 22 20 9 37
19 37 21 0 6 -32 -6 -47 -17 -7 -5 -14 -5 -18 2 -3 5 -2 10 4 10 6 0 6 11 1
30 -6 23 -6 29 3 23 9 -5 8 -2 0 9 -7 8 -10 18 -6 21 10 10 -18 37 -38 37 -11
0 -19 5 -19 11 0 7 7 8 18 4 9 -4 22 -8 29 -8 7 0 10 -4 7 -9 -3 -4 3 -5 12
-1 13 5 15 3 9 -8 -5 -8 -5 -11 1 -6 5 5 10 13 10 18 3 23 6 23 20 -1 12 -20
14 -21 9 -4 -5 18 -1 20 27 19 22 -1 34 -7 36 -18 3 -15 6 -14 22 5 23 27 26
17 5 -16 -13 -19 -13 -23 -1 -23 8 0 12 6 8 15 -3 10 -1 13 6 8 6 -3 13 -2 17
4 9 14 23 13 28 -2 2 -7 3 -5 2 5 -3 18 10 23 20 7 3 -5 12 -7 20 -3 11 4 14
0 9 -13 -5 -15 -4 -16 4 -4 6 8 8 18 5 24 -4 5 1 7 11 3 10 -4 23 -4 29 0 7 4
19 8 27 8 8 0 14 8 14 17 -1 9 5 19 13 22 11 5 13 1 7 -17 -9 -30 -24 -48 -35
-41 -5 3 -17 0 -26 -6 -16 -9 -15 -10 4 -5 19 5 22 3 17 -12 -5 -13 -2 -12 10
4 28 38 55 48 72 26 14 -17 14 -16 4 5 -10 20 -9 24 9 29 12 3 21 10 21 15 0
5 -16 0 -35 -12 -19 -12 -35 -17 -35 -11 0 6 11 17 25 23 14 6 25 18 25 27 -1
14 -2 13 -11 -1 -5 -10 -17 -18 -25 -18 -8 0 -12 5 -9 10 3 6 1 10 -4 10 -6 0
-11 -5 -11 -11 0 -6 -9 -9 -19 -6 -15 3 -18 1 -14 -11 4 -10 2 -13 -5 -8 -19
12 -14 26 13 36 14 5 25 12 25 15 0 4 -4 4 -8 1 -5 -3 2 16 14 41 18 35 21 49
13 60 -9 10 -91 13 -424 13 -396 0 -413 -1 -438 -20z m213 -140 c0 -5 -9 -7
-19 -5 -15 3 -19 -1 -15 -13 5 -14 4 -14 -6 1 -7 11 -18 16 -30 12 -10 -3 -21
-1 -24 4 -4 6 13 10 44 9 27 0 50 -4 50 -8z m316 -6 c-2 -6 2 -11 9 -11 7 0
11 6 9 12 -3 7 8 12 31 13 19 1 35 -2 35 -7 0 -5 -13 -7 -30 -6 -16 1 -27 -1
-24 -6 3 -5 10 -7 15 -4 5 4 9 2 9 -4 0 -5 -16 -8 -35 -7 -19 2 -37 0 -40 -4
-8 -13 -45 -7 -45 6 0 7 11 11 25 9 14 -1 27 1 30 5 2 4 -10 7 -27 6 -17 -1
-33 -7 -36 -14 -2 -7 -8 -10 -13 -7 -4 3 -21 -2 -36 -12 -15 -10 -24 -12 -20
-5 10 15 -5 16 -19 2 -6 -6 -18 -8 -27 -4 -13 5 -14 10 -6 25 6 13 6 19 -1 19
-5 0 -10 -6 -10 -14 0 -8 -5 -18 -12 -22 -8 -5 -9 0 -5 17 5 21 5 22 -7 7 -7
-10 -15 -17 -17 -15 -2 1 2 -3 10 -10 8 -7 18 -10 22 -7 5 3 9 1 9 -5 0 -17
-25 -18 -36 -2 -9 12 -15 13 -25 4 -11 -9 -14 -6 -16 14 -1 19 1 22 8 12 6 -9
9 -10 9 -2 0 6 -4 14 -8 17 -10 6 -34 -8 -33 -20 2 -15 -22 -10 -27 5 -3 8 0
11 7 7 6 -4 13 -1 16 6 4 10 41 13 160 13 111 1 154 -3 151 -11z m266 -1 c8
-7 18 -10 21 -6 4 3 7 1 7 -6 0 -7 -7 -11 -15 -8 -8 4 -17 2 -20 -3 -3 -5 -12
-7 -20 -4 -7 3 -23 0 -34 -6 -18 -9 -23 -8 -31 12 -5 13 -9 18 -9 12 -1 -7
-11 -18 -23 -26 -22 -14 -23 -14 -25 10 -1 18 1 21 8 11 6 -9 9 -10 9 -2 0 6
-4 14 -8 17 -10 6 -34 -8 -33 -20 2 -15 -22 -10 -26 6 -4 12 -3 13 5 1 8 -11
11 -10 16 5 5 17 16 20 84 19 48 0 85 -5 94 -12z m-632 -7 c0 -3 -4 -8 -10
-11 -5 -3 -10 -1 -10 4 0 6 5 11 10 11 6 0 10 -2 10 -4z m357 -211 c0 -8 -4
-15 -8 -15 -11 0 -20 16 -12 24 11 11 20 7 20 -9z m-2 -24 c18 -7 17 -9 -11
-24 -31 -16 -31 -16 -26 9 5 26 7 27 37 15z m-20 -50 c-3 -6 3 -14 12 -20 10
-6 13 -11 7 -11 -6 0 -11 -7 -11 -15 0 -8 5 -15 11 -15 6 0 5 -4 -3 -9 -8 -5
-16 -17 -17 -25 -1 -9 2 -14 7 -10 16 9 31 -6 20 -20 -6 -7 -9 -22 -6 -35 2
-12 0 -19 -6 -16 -8 6 -13 -8 -10 -27 0 -5 -4 -8 -9 -8 -11 0 -12 6 -4 37 4
13 11 20 17 16 6 -3 7 -1 3 6 -4 6 -11 9 -15 7 -4 -3 -7 30 -6 72 2 82 2 82
11 82 3 0 3 -4 -1 -9z m31 -223 c-1 -19 -7 -33 -14 -32 -29 2 -33 5 -27 14 3
6 1 10 -6 10 -7 0 -9 3 -5 7 4 5 13 0 21 -10 11 -16 13 -16 19 -2 3 9 2 13 -4
10 -5 -3 -8 4 -7 15 2 34 24 22 23 -12z m-8 -53 c3 -3 2 -8 -2 -12 -4 -4 -11
-1 -16 7 -6 9 -10 10 -10 3 0 -6 4 -14 10 -18 11 -7 2 -35 -12 -35 -6 0 -8 8
-5 19 2 10 0 25 -5 34 -7 13 -4 15 13 12 12 -3 24 -7 27 -10z m-6 -83 c9 -9 9
-12 0 -12 -7 0 -11 -3 -11 -7 3 -19 -2 -33 -12 -33 -6 0 -9 8 -6 19 2 10 0 25
-4 34 -11 18 14 18 33 -1z m-8 -68 c22 -9 20 -19 -7 -31 -22 -10 -23 -9 -19
13 5 27 4 26 26 18z m-9 -53 c-3 -6 3 -14 12 -20 10 -6 13 -11 7 -11 -14 0
-14 -30 0 -30 5 0 1 -6 -9 -14 -18 -13 -18 -14 4 -25 16 -9 20 -16 12 -25 -6
-7 -9 -23 -6 -35 4 -24 -15 -25 -23 -1 -3 8 0 10 8 5 9 -5 11 -4 6 4 -4 6 -11
9 -15 7 -4 -3 -7 30 -6 72 2 82 2 82 11 82 3 0 3 -4 -1 -9z m25 -191 c12 0 4
-54 -9 -58 -6 -2 -8 -9 -4 -15 12 -20 12 -38 0 -34 -7 2 -12 12 -12 23 0 11
-6 18 -14 16 -12 -3 -12 0 -2 12 7 9 17 14 21 11 5 -3 12 0 16 6 5 8 3 9 -6 4
-10 -6 -12 -4 -7 8 3 9 1 19 -5 23 -6 4 -8 3 -5 -3 4 -6 1 -16 -7 -22 -11 -9
-12 -6 -8 14 3 18 9 24 19 21 8 -3 18 -6 23 -6z m-32 -92 c-2 -6 7 -16 18 -23
l22 -11 -27 -30 c-14 -17 -35 -37 -46 -44 -15 -11 -14 -8 4 13 31 34 34 53 9
53 -17 0 -18 -1 -3 -12 10 -7 12 -15 6 -18 -9 -6 -37 32 -29 38 2 2 12 8 23
14 11 6 14 12 7 12 -7 0 -10 5 -7 10 9 14 26 13 23 -2z"/>
<path d="M627 1699 c13 -12 31 -15 30 -4 -1 5 -10 10 -20 10 -10 1 -14 -2 -10
-6z"/>
<path d="M599 1692 c9 -7 10 -11 2 -15 -7 -4 -8 -5 0 -3 15 2 13 20 -3 24 -10
3 -10 2 1 -6z"/>
<path d="M957 1692 c5 -11 7 -11 14 0 7 10 9 10 9 0 0 -9 5 -10 19 -2 13 7 21
7 24 0 3 -6 4 -5 3 1 -1 7 -18 13 -38 14 -27 1 -34 -2 -31 -13z"/>
<path d="M720 619 c-12 -8 -11 -9 5 -7 12 2 19 -2 17 -10 -1 -8 2 -11 8 -7 8
5 7 11 -1 21 -14 17 -10 16 -29 3z"/>
<path d="M1110 1761 c0 -6 4 -12 8 -15 5 -3 9 1 9 9 0 8 -4 15 -9 15 -4 0 -8
-4 -8 -9z"/>
<path d="M1706 1727 c1 -18 -4 -38 -10 -46 -8 -11 -8 -15 2 -18 6 -3 12 -9 12
-14 0 -6 -5 -7 -12 -3 -7 4 -8 3 -4 -5 4 -6 12 -9 17 -5 6 3 13 -4 16 -16 4
-14 8 -18 13 -10 4 7 -1 21 -12 32 -10 10 -16 24 -12 30 5 8 11 4 17 -10 11
-25 22 -28 33 -9 4 6 4 9 -1 5 -12 -11 -50 43 -47 68 2 12 0 24 -5 27 -4 3 -7
-9 -7 -26z"/>
<path d="M1730 1749 c0 -5 5 -7 10 -4 6 3 10 8 10 11 0 2 -4 4 -10 4 -5 0 -10
-5 -10 -11z"/>
<path d="M2490 1751 c0 -6 4 -13 10 -16 6 -3 7 1 4 9 -7 18 -14 21 -14 7z"/>
<path d="M1755 1739 c-4 -6 -5 -12 -2 -15 2 -3 7 2 10 11 7 17 1 20 -8 4z"/>
<path d="M1190 1731 c0 -6 4 -13 10 -16 6 -3 7 1 4 9 -7 18 -14 21 -14 7z"/>
<path d="M2472 1721 c-11 -7 -11 -9 0 -14 9 -3 15 1 15 9 0 8 -1 14 -1 14 -1
0 -7 -4 -14 -9z"/>
<path d="M1730 1712 c0 -5 10 -17 22 -28 l21 -19 -18 28 c-18 28 -25 33 -25
19z"/>
<path d="M332 1690 c0 -14 2 -19 5 -12 2 6 2 18 0 25 -3 6 -5 1 -5 -13z"/>
<path d="M2424 1698 c-4 -7 -3 -8 4 -4 7 4 12 3 12 -3 0 -5 -4 -12 -10 -16
-14 -8 -1 -33 21 -40 11 -4 17 -11 14 -16 -4 -5 -14 -5 -25 1 -15 8 -18 7 -15
-3 8 -20 40 -18 53 3 14 24 -9 52 -36 43 -14 -5 -15 -3 -4 8 14 15 16 39 3 39
-6 0 -13 -5 -17 -12z m46 -53 c11 -13 10 -14 -4 -9 -9 3 -16 10 -16 15 0 13 6
11 20 -6z"/>
<path d="M2460 1690 c0 -6 7 -10 15 -10 8 0 15 2 15 4 0 2 -7 6 -15 10 -8 3
-15 1 -15 -4z"/>
<path d="M1150 1687 c0 -2 6 -10 14 -16 11 -9 16 -9 22 1 4 7 4 10 -1 6 -4 -4
-14 -3 -22 3 -7 6 -13 9 -13 6z"/>
<path d="M330 1651 c0 -6 4 -13 10 -16 6 -3 7 1 4 9 -7 18 -14 21 -14 7z"/>
<path d="M800 1649 c0 -5 5 -7 10 -4 6 3 10 8 10 11 0 2 -4 4 -10 4 -5 0 -10
-5 -10 -11z"/>
<path d="M1100 1656 c0 -2 7 -9 15 -16 13 -11 14 -10 9 4 -5 14 -24 23 -24 12z"/>
<path d="M750 1630 c-9 -6 -10 -10 -3 -10 6 0 15 5 18 10 8 12 4 12 -15 0z"/>
<path d="M834 1626 c1 -8 5 -18 8 -22 4 -3 5 1 4 10 -1 8 -5 18 -8 22 -4 3 -5
-1 -4 -10z"/>
<path d="M764 1608 c-12 -14 -13 -18 -3 -10 9 6 18 10 21 7 2 -3 5 2 5 10 0
19 0 19 -23 -7z"/>
<path d="M806 1613 c-6 -14 -5 -15 5 -6 7 7 10 15 7 18 -3 3 -9 -2 -12 -12z"/>
<path d="M386 1608 c3 -5 10 -6 15 -3 13 9 11 12 -6 12 -8 0 -12 -4 -9 -9z"/>
<path d="M426 1612 c-3 -5 1 -9 9 -9 8 0 12 4 9 9 -3 4 -7 8 -9 8 -2 0 -6 -4
-9 -8z"/>
<path d="M970 1610 c0 -5 5 -10 11 -10 5 0 7 5 4 10 -3 6 -8 10 -11 10 -2 0
-4 -4 -4 -10z"/>
<path d="M1705 1607 c-6 -7 -11 -24 -11 -39 -1 -25 6 -33 29 -29 13 2 7 -11
-15 -28 -20 -17 -18 -48 3 -36 5 4 13 -2 17 -12 7 -18 8 -18 25 0 19 18 18 19
-4 12 l-23 -8 19 29 c15 24 16 27 2 15 -19 -15 -23 -1 -5 17 9 9 9 12 -2 13
-8 1 -19 1 -24 0 -5 -1 -6 5 -2 14 3 9 2 13 -4 10 -6 -3 -10 -1 -10 4 0 6 7
11 15 11 8 0 15 -4 15 -10 0 -5 8 -14 18 -19 14 -7 19 -6 19 4 0 7 -7 11 -15
7 -10 -3 -13 -1 -8 6 3 6 -2 13 -13 17 -12 4 -18 12 -14 21 6 17 2 18 -12 1z
m25 -120 c0 -7 -4 -6 -10 3 -8 12 -10 12 -10 1 0 -8 -3 -12 -6 -8 -9 9 6 28
17 22 5 -4 9 -12 9 -18z"/>
<path d="M1750 1601 c0 -6 4 -13 10 -16 6 -3 7 1 4 9 -7 18 -14 21 -14 7z"/>
<path d="M793 1495 c0 -14 3 -25 6 -25 4 0 7 11 7 25 0 14 -3 25 -7 25 -3 0
-6 -11 -6 -25z"/>
<path d="M2495 1510 c-3 -5 -1 -10 4 -10 6 0 11 5 11 10 0 6 -2 10 -4 10 -3 0
-8 -4 -11 -10z"/>
<path d="M2435 1491 c3 -5 1 -12 -4 -16 -15 -9 -3 -32 17 -32 9 0 22 7 28 16
13 16 8 41 -8 41 -5 0 -6 -4 -3 -10 3 -5 1 -10 -4 -10 -6 0 -11 5 -11 10 0 6
-5 10 -11 10 -5 0 -8 -4 -4 -9z m34 -28 c-6 -6 -17 -9 -25 -6 -19 7 -10 19 15
19 15 0 17 -4 10 -13z"/>
<path d="M2515 1441 c-3 -5 -2 -12 3 -15 5 -3 9 1 9 9 0 17 -3 19 -12 6z"/>
<path d="M1770 1429 c0 -5 5 -7 10 -4 6 3 10 8 10 11 0 2 -4 4 -10 4 -5 0 -10
-5 -10 -11z"/>
<path d="M1750 1379 c0 -5 5 -7 10 -4 6 3 10 8 10 11 0 2 -4 4 -10 4 -5 0 -10
-5 -10 -11z"/>
<path d="M2495 1350 c-3 -5 -1 -10 4 -10 6 0 11 5 11 10 0 6 -2 10 -4 10 -3 0
-8 -4 -11 -10z"/>
<path d="M2426 1335 c3 -8 14 -17 25 -20 11 -4 17 -11 14 -16 -4 -5 -14 -5
-25 1 -15 8 -18 7 -14 -3 7 -18 36 -17 50 2 13 16 8 41 -8 41 -5 0 -6 -4 -3
-10 3 -5 1 -10 -4 -10 -6 0 -11 4 -11 9 0 5 -7 11 -14 14 -10 4 -13 1 -10 -8z"/>
<path d="M797 1253 c-10 -10 -8 -23 4 -23 5 0 8 4 5 9 -4 5 0 12 6 14 7 3 8 6
2 6 -6 1 -14 -2 -17 -6z"/>
<path d="M2195 1220 c3 -5 8 -10 11 -10 2 0 4 5 4 10 0 6 -5 10 -11 10 -5 0
-7 -4 -4 -10z"/>
<path d="M1595 1170 c-3 -5 -1 -10 4 -10 6 0 11 5 11 10 0 6 -2 10 -4 10 -3 0
-8 -4 -11 -10z"/>
<path d="M1649 1173 c-1 -5 -2 -15 -3 -23 0 -8 -12 -17 -25 -18 -17 -3 -21 0
-15 10 6 10 5 11 -7 2 -8 -6 -31 -14 -52 -18 -27 -5 -40 -14 -47 -31 -12 -32
-11 -495 1 -518 12 -21 49 -19 96 6 39 21 55 22 29 2 -11 -8 -14 -15 -8 -15
10 0 10 -5 2 -21 -7 -11 -9 -23 -6 -27 3 -3 6 -1 6 4 0 6 6 19 14 30 15 19 15
19 11 -1 -2 -11 -4 -20 -5 -20 -1 0 -3 -8 -5 -17 -2 -10 1 -18 6 -18 6 0 9 7
7 16 -2 10 3 19 11 22 8 3 11 0 7 -7 -4 -6 -3 -11 2 -11 6 0 12 7 16 15 3 8
11 15 17 15 8 0 7 -5 -2 -17 -12 -14 -12 -16 0 -8 11 6 13 4 8 -9 -4 -11 -3
-15 4 -11 6 4 8 13 5 21 -3 7 3 18 12 23 14 9 14 11 2 12 -8 1 -20 1 -27 0 -6
-1 -10 5 -9 13 3 20 16 33 16 16 0 -10 3 -10 15 0 8 7 12 16 9 21 -3 5 0 9 7
9 22 0 1 13 -26 16 -22 2 -25 -1 -20 -19 5 -17 4 -19 -4 -7 -10 13 -11 13 -11
0 0 -13 -1 -13 -11 0 -8 13 -9 12 -7 -4 2 -10 -3 -21 -10 -23 -17 -6 -11 16
14 52 19 28 20 43 19 225 -1 128 2 200 9 209 8 11 8 13 -1 7 -8 -4 -13 -2 -13
8 0 8 -7 22 -15 30 -12 12 -13 20 -5 35 5 11 10 22 10 25 0 9 -20 7 -21 -1z
m78 -558 c0 -8 -4 -15 -9 -15 -4 0 -8 7 -8 15 0 8 4 15 8 15 5 0 9 -7 9 -15z
m-40 -30 c0 -8 -4 -12 -9 -9 -4 3 -8 1 -8 -5 0 -5 5 -11 12 -13 7 -3 8 -7 2
-11 -5 -3 -15 -2 -22 2 -9 5 -8 13 4 29 18 26 21 27 21 7z"/>
<path d="M1838 1155 c-23 -31 -23 -35 5 -34 20 0 20 1 3 8 -13 5 -16 10 -9 14
6 4 19 0 27 -9 19 -18 20 -8 3 23 l-12 21 -17 -23z"/>
<path d="M1927 1174 c-3 -3 -13 -7 -24 -9 -10 -2 -20 -4 -23 -5 -3 0 3 -7 13
-15 11 -7 26 -11 35 -8 13 3 13 1 -2 -11 -17 -13 -18 -18 -6 -29 10 -9 12 -9
6 1 -4 7 -1 15 8 18 8 3 17 12 20 20 4 10 2 12 -6 8 -8 -5 -9 -2 -5 9 6 16 -5
31 -16 21z m3 -19 c-7 -9 -15 -13 -19 -10 -3 3 1 10 9 15 21 14 24 12 10 -5z"/>
<path d="M2435 1171 c3 -5 1 -12 -4 -16 -15 -9 -3 -32 17 -32 9 0 22 7 28 16
13 16 8 41 -8 41 -5 0 -6 -4 -3 -10 3 -5 1 -10 -4 -10 -6 0 -11 5 -11 10 0 6
-5 10 -11 10 -5 0 -8 -4 -4 -9z m34 -28 c-6 -6 -17 -9 -25 -6 -19 7 -10 19 15
19 15 0 17 -4 10 -13z"/>
<path d="M810 1141 c0 -7 -5 -9 -12 -5 -7 4 -10 4 -6 -1 4 -4 1 -20 -8 -36 -8
-16 -11 -29 -7 -29 10 1 44 72 38 79 -3 2 -5 -1 -5 -8z"/>
<path d="M2515 1121 c-3 -5 -2 -12 3 -15 5 -3 9 1 9 9 0 17 -3 19 -12 6z"/>
<path d="M1807 1108 c7 -8 11 -17 8 -20 -3 -2 4 -4 15 -3 11 1 22 4 25 8 3 4
2 5 -2 2 -3 -3 -18 2 -32 12 -20 13 -23 13 -14 1z"/>
<path d="M2135 1110 c6 -10 4 -12 -11 -6 -15 6 -17 5 -6 -5 9 -9 15 -10 23 -2
8 8 7 13 -2 18 -8 6 -10 4 -4 -5z"/>
<path d="M806 1093 c-6 -14 -5 -15 5 -6 7 7 10 15 7 18 -3 3 -9 -2 -12 -12z"/>
<path d="M1873 1095 c0 -8 4 -12 9 -9 5 3 6 10 3 15 -9 13 -12 11 -12 -6z"/>
<path d="M1948 1098 c-7 -17 15 -19 29 -3 4 4 3 5 -4 2 -6 -4 -13 -2 -15 5 -3
8 -6 6 -10 -4z"/>
<path d="M1993 1097 c0 -8 6 -14 14 -14 9 0 10 4 2 14 -6 7 -12 13 -14 13 -1
0 -2 -6 -2 -13z"/>
<path d="M1713 1085 c0 -8 4 -12 9 -9 4 3 8 9 8 15 0 5 -4 9 -8 9 -5 0 -9 -7
-9 -15z"/>
<path d="M1780 1090 c-9 -6 -10 -10 -3 -10 6 0 15 5 18 10 8 12 4 12 -15 0z"/>
<path d="M2495 1030 c-3 -5 -1 -10 4 -10 6 0 11 5 11 10 0 6 -2 10 -4 10 -3 0
-8 -4 -11 -10z"/>
<path d="M1690 989 c0 -5 5 -7 10 -4 6 3 10 8 10 11 0 2 -4 4 -10 4 -5 0 -10
-5 -10 -11z"/>
<path d="M2515 991 c-3 -5 -2 -12 3 -15 5 -3 9 1 9 9 0 17 -3 19 -12 6z"/>
<path d="M1704 968 l-19 -23 23 19 c21 18 27 26 19 26 -2 0 -12 -10 -23 -22z"/>
<path d="M1718 959 c-15 -16 -22 -29 -17 -29 6 0 7 -6 3 -12 -5 -7 -9 -21 -9
-32 -2 -15 0 -16 9 -5 12 16 36 23 36 12 0 -12 -16 -35 -24 -34 -19 3 -22 -4
-21 -51 1 -35 5 -52 13 -51 16 4 15 -12 0 -29 -17 -17 -22 -42 -8 -33 19 12 7
-29 -12 -43 -10 -7 -18 -19 -18 -25 0 -7 5 -4 11 6 6 9 14 15 20 12 5 -4 9 -1
9 5 0 6 5 8 10 5 6 -3 10 -1 10 5 0 6 5 8 12 4 7 -4 8 -3 4 4 -4 6 -14 9 -24
6 -15 -5 -15 -4 1 6 13 8 22 8 31 1 9 -8 13 -7 13 2 0 8 -6 14 -14 15 -7 1
-20 3 -28 4 -17 2 -18 7 -5 28 9 13 10 13 10 0 1 -12 3 -11 11 3 6 9 14 15 18
13 4 -3 8 1 8 9 0 13 -4 12 -19 -2 -19 -17 -26 -5 -7 14 8 8 5 13 -10 18 -12
3 -18 11 -15 17 4 7 2 8 -4 4 -7 -4 -12 -3 -12 3 0 6 17 20 38 31 20 11 27 18
14 14 -21 -5 -22 -4 -11 14 7 11 9 28 5 38 -5 14 -9 15 -15 5 -6 -9 -11 -10
-15 -3 -4 6 2 15 11 21 11 6 13 11 5 11 -7 0 -10 5 -7 10 4 6 10 8 14 6 4 -3
8 4 8 15 1 10 1 18 0 18 -1 -1 -14 -14 -29 -30z m6 -108 c3 -5 -1 -11 -9 -14
-9 -4 -12 -1 -8 9 6 16 10 17 17 5z m6 -80 c0 -4 -6 -8 -13 -8 -8 0 -14 6 -14
13 0 7 6 10 14 7 7 -3 13 -8 13 -12z"/>
<path d="M2453 939 c-37 -23 -40 -31 -18 -52 15 -15 55 -12 55 4 0 5 -8 5 -17
2 -17 -7 -17 -6 0 20 9 15 14 27 10 27 -5 0 -1 5 7 10 8 5 11 10 5 10 -5 0
-25 -10 -42 -21z m12 -22 c-8 -13 -13 -27 -10 -30 3 -4 -3 0 -12 8 -16 14 -16
16 2 30 29 21 38 18 20 -8z"/>
<path d="M1770 941 c0 -7 -4 -9 -10 -6 -5 3 -10 1 -10 -4 0 -6 4 -11 9 -11 13
0 25 20 17 27 -3 4 -6 1 -6 -6z"/>
<path d="M1737 823 c-12 -11 -8 -22 12 -33 14 -7 22 -7 26 0 4 6 3 10 -2 9
-19 -3 -33 2 -33 12 0 6 7 8 16 5 8 -3 12 -2 9 4 -7 12 -19 13 -28 3z"/>
<path d="M790 762 c0 -6 9 -12 20 -15 11 -3 20 -3 20 -1 0 2 -9 8 -20 14 -11
6 -20 7 -20 2z"/>
<path d="M2496 703 c-6 -14 -5 -15 5 -6 7 7 10 15 7 18 -3 3 -9 -2 -12 -12z"/>
<path d="M805 690 c3 -5 11 -10 16 -10 6 0 7 5 4 10 -3 6 -11 10 -16 10 -6 0
-7 -4 -4 -10z"/>
<path d="M1750 650 c-9 -6 -10 -10 -3 -10 6 0 15 5 18 10 8 12 4 12 -15 0z"/>
<path d="M790 640 c0 -5 7 -10 16 -10 9 0 12 -5 8 -12 -4 -7 -3 -8 4 -4 16 10
15 14 -8 26 -14 7 -20 7 -20 0z"/>
<path d="M1770 630 c0 -5 5 -10 11 -10 5 0 7 5 4 10 -3 6 -8 10 -11 10 -2 0
-4 -4 -4 -10z"/>
<path d="M2397 622 c-10 -10 -14 -22 -10 -27 5 -4 0 -5 -10 -2 -11 4 -16 3
-12 -3 3 -6 1 -10 -6 -10 -9 0 -9 -3 0 -14 8 -10 9 -16 1 -21 -13 -8 -13 -25
1 -25 5 0 7 5 4 10 -3 6 -2 10 3 10 16 0 22 -13 11 -27 -9 -9 -8 -13 0 -13 6
0 11 5 11 11 0 6 9 9 20 6 17 -4 18 -2 9 15 -9 17 -8 19 9 14 12 -4 22 -1 25
7 3 9 16 13 31 12 14 -2 24 1 20 6 -3 5 -9 7 -14 4 -5 -3 -23 1 -40 10 -27 14
-35 25 -31 48 2 11 -5 8 -22 -11z m44 -65 c-8 -8 -11 -6 -11 8 0 18 0 18 -14
0 -8 -11 -12 -23 -10 -27 3 -5 1 -8 -5 -8 -10 0 -36 39 -29 44 2 2 12 8 23 14
11 6 14 12 7 12 -7 0 -11 4 -7 9 3 5 17 -2 31 -16 18 -18 22 -29 15 -36z"/>
<path d="M2386 571 c-4 -5 -2 -12 3 -15 5 -4 12 -2 15 3 4 5 2 12 -3 15 -5 4
-12 2 -15 -3z"/>
<path d="M2430 609 c0 -5 4 -8 9 -4 5 3 12 1 16 -5 3 -5 11 -10 18 -10 6 0 2
7 -9 15 -23 17 -34 19 -34 4z"/>
<path d="M810 589 c0 -5 5 -7 10 -4 6 3 10 8 10 11 0 2 -4 4 -10 4 -5 0 -10
-5 -10 -11z"/>
<path d="M1731 577 c2 -2 11 -8 20 -15 12 -9 16 -9 16 1 0 7 -9 14 -20 14 -11
1 -18 1 -16 0z"/>
<path d="M2326 548 c3 -5 10 -6 15 -3 13 9 11 12 -6 12 -8 0 -12 -4 -9 -9z"/>
<path d="M1735 530 c3 -5 8 -10 11 -10 2 0 4 5 4 10 0 6 -5 10 -11 10 -5 0 -7
-4 -4 -10z"/>
<path d="M2466 528 c3 -5 10 -6 15 -3 13 9 11 12 -6 12 -8 0 -12 -4 -9 -9z"/>
<path d="M2333 501 c0 -11 5 -18 9 -15 4 3 5 11 1 19 -7 21 -12 19 -10 -4z"/>
<path d="M708 503 c7 -3 16 -2 19 1 4 3 -2 6 -13 5 -11 0 -14 -3 -6 -6z"/>
<path d="M1670 500 c-9 -6 -10 -10 -3 -10 6 0 15 5 18 10 8 12 4 12 -15 0z"/>
</g>
</svg>
